<svg width="50" height="46" viewBox="0 0 50 46" fill="none" xmlns="http://www.w3.org/2000/svg">
<g clip-path="url(#clip0_10323_180)">
<path fill-rule="evenodd" clip-rule="evenodd" d="M0 18C0 8.05888 8.05888 0 18 0H32C41.9411 0 50 8.05887 50 18V28C50 37.9411 41.9411 46 32 46H18C15.9578 46 13.9951 45.6599 12.1653 45.0333L15.765 41.4336C15.945 41.2646 16.09 41.0619 16.1916 40.8373C16.2932 40.6128 16.3493 40.3708 16.3567 40.1255C16.3641 39.8802 16.3225 39.6365 16.2346 39.4086C16.1466 39.1807 16.0139 38.9732 15.8442 38.7981L15.782 38.7359C15.6148 38.5574 15.4131 38.4146 15.1889 38.3159C14.9647 38.2171 14.7225 38.1643 14.4764 38.1607C14.2303 38.1571 13.9854 38.2026 13.756 38.2947C13.5265 38.3868 13.3172 38.5236 13.1403 38.697L9.01236 42.8249C8.85223 42.9851 8.72295 43.1702 8.62849 43.371C8.12172 43.0614 7.63146 42.7274 7.15933 42.3707L12.0484 37.4817C12.2093 37.3318 12.3352 37.1481 12.419 36.9414C12.5027 36.7347 12.5425 36.509 12.536 36.2775C12.5296 36.0461 12.477 35.8134 12.3814 35.5932C12.2857 35.373 12.1489 35.1695 11.979 34.9948L11.9479 34.9014C11.7788 34.7257 11.5801 34.5817 11.3629 34.4774C11.1458 34.3732 10.9146 34.3109 10.6825 34.2941C10.4504 34.2772 10.222 34.3062 10.0103 34.3793C9.79861 34.4523 9.60778 34.5681 9.44871 34.72L4.38922 39.7795C4.06843 39.4092 3.76251 39.0256 3.47238 38.6298C3.62167 38.5401 3.76124 38.4315 3.88704 38.3057L8.18625 34.0065C8.37599 33.8278 8.53071 33.6154 8.6414 33.3817C8.75208 33.148 8.81651 32.8977 8.83093 32.6454C8.84535 32.393 8.80947 32.1437 8.72539 31.9119C8.64131 31.6801 8.5107 31.4705 8.34119 31.2953L8.32046 31.2745C8.1546 31.0888 7.95075 30.9409 7.72104 30.8396C7.49133 30.7383 7.24047 30.6858 6.98336 30.685C6.72625 30.6843 6.46816 30.7354 6.22444 30.8354C5.98073 30.9353 5.75637 31.082 5.56471 31.2667L1.53862 35.2928C0.549537 33.0636 0 30.596 0 28V18ZM35.8735 10.3403C36.0806 10.3647 36.2797 10.4621 36.4345 10.6148C36.5228 10.7044 36.5933 10.8095 36.6415 10.9235C36.6904 11.0389 36.7154 11.1608 36.7149 11.2813C36.7216 19.3356 33.6761 26.7821 28.1858 32.1359C28.9463 34.8197 28.7308 37.5889 27.5792 39.9298C26.4276 42.2706 24.4181 44.0241 21.9236 44.8647C22.7454 42.4087 22.7327 39.6725 21.8873 37.0525C21.1248 37.6033 20.2875 38.0508 19.3942 38.385C19.0358 38.55 18.6741 38.5247 18.4806 38.3313L8.89112 28.7418C8.75001 28.5983 8.65542 28.417 8.62187 28.2258C8.58833 28.0347 8.6177 27.8443 8.70547 27.6838C9.06456 26.7518 9.49807 25.8563 10.0022 25.0054C7.38176 24.167 4.6478 24.1543 2.19 24.9691C3.08596 22.5134 4.85355 20.5417 7.18388 19.3984C9.51422 18.2552 12.2591 18.0131 14.9389 18.7145C20.3509 13.3461 27.7592 10.3623 35.7614 10.3279L35.8735 10.3403Z" fill="#E1E1E6"/>
</g>
<defs>
<clipPath id="clip0_10323_180">
<rect width="50" height="46" rx="18" fill="white"/>
</clipPath>
</defs>
</svg>
