<svg width="165" height="43" viewBox="0 0 165 43" fill="none" xmlns="http://www.w3.org/2000/svg">
<path d="M43.0795 14.2727V7.90909H68.3636V14.2727H59.6136V37H51.8295V14.2727H43.0795ZM78.7969 37.3977C76.4295 37.3977 74.4029 36.929 72.7173 35.9915C71.0317 35.0445 69.7391 33.7282 68.8395 32.0426C67.9399 30.3475 67.4901 28.3826 67.4901 26.1477C67.4901 23.9129 67.9399 21.9527 68.8395 20.267C69.7391 18.572 71.0317 17.2557 72.7173 16.3182C74.4029 15.3712 76.4295 14.8977 78.7969 14.8977C81.1643 14.8977 83.1908 15.3712 84.8764 16.3182C86.562 17.2557 87.8546 18.572 88.7543 20.267C89.6539 21.9527 90.1037 23.9129 90.1037 26.1477C90.1037 28.3826 89.6539 30.3475 88.7543 32.0426C87.8546 33.7282 86.562 35.0445 84.8764 35.9915C83.1908 36.929 81.1643 37.3977 78.7969 37.3977ZM78.8537 31.6023C79.5166 31.6023 80.0895 31.3797 80.5724 30.9347C81.0554 30.4896 81.4295 29.8551 81.6946 29.0312C81.9598 28.2074 82.0923 27.2273 82.0923 26.0909C82.0923 24.9451 81.9598 23.965 81.6946 23.1506C81.4295 22.3267 81.0554 21.6922 80.5724 21.2472C80.0895 20.8021 79.5166 20.5795 78.8537 20.5795C78.1529 20.5795 77.5516 20.8021 77.0497 21.2472C76.5478 21.6922 76.1643 22.3267 75.8991 23.1506C75.634 23.965 75.5014 24.9451 75.5014 26.0909C75.5014 27.2273 75.634 28.2074 75.8991 29.0312C76.1643 29.8551 76.5478 30.4896 77.0497 30.9347C77.5516 31.3797 78.1529 31.6023 78.8537 31.6023ZM107.604 22.4545V28.3636H93.9673V22.4545H107.604ZM123.349 37H112.156V7.90909H123.236C126.228 7.90909 128.813 8.49148 130.991 9.65625C133.179 10.8116 134.865 12.4782 136.048 14.6562C137.241 16.8248 137.838 19.4242 137.838 22.4545C137.838 25.4848 137.246 28.089 136.062 30.267C134.879 32.4356 133.203 34.1023 131.034 35.267C128.866 36.4223 126.304 37 123.349 37ZM120.054 30.2955H123.065C124.505 30.2955 125.731 30.0634 126.744 29.5994C127.767 29.1354 128.544 28.3352 129.074 27.1989C129.614 26.0625 129.884 24.4811 129.884 22.4545C129.884 20.428 129.609 18.8466 129.06 17.7102C128.52 16.5739 127.724 15.7737 126.673 15.3097C125.632 14.8456 124.353 14.6136 122.838 14.6136H120.054V30.2955ZM152.117 37.3977C149.75 37.3977 147.723 36.929 146.038 35.9915C144.352 35.0445 143.059 33.7282 142.16 32.0426C141.26 30.3475 140.81 28.3826 140.81 26.1477C140.81 23.9129 141.26 21.9527 142.16 20.267C143.059 18.572 144.352 17.2557 146.038 16.3182C147.723 15.3712 149.75 14.8977 152.117 14.8977C154.485 14.8977 156.511 15.3712 158.197 16.3182C159.882 17.2557 161.175 18.572 162.075 20.267C162.974 21.9527 163.424 23.9129 163.424 26.1477C163.424 28.3826 162.974 30.3475 162.075 32.0426C161.175 33.7282 159.882 35.0445 158.197 35.9915C156.511 36.929 154.485 37.3977 152.117 37.3977ZM152.174 31.6023C152.837 31.6023 153.41 31.3797 153.893 30.9347C154.376 30.4896 154.75 29.8551 155.015 29.0312C155.28 28.2074 155.413 27.2273 155.413 26.0909C155.413 24.9451 155.28 23.965 155.015 23.1506C154.75 22.3267 154.376 21.6922 153.893 21.2472C153.41 20.8021 152.837 20.5795 152.174 20.5795C151.473 20.5795 150.872 20.8021 150.37 21.2472C149.868 21.6922 149.485 22.3267 149.219 23.1506C148.954 23.965 148.822 24.9451 148.822 26.0909C148.822 27.2273 148.954 28.2074 149.219 29.0312C149.485 29.8551 149.868 30.4896 150.37 30.9347C150.872 31.3797 151.473 31.6023 152.174 31.6023Z" fill="#E1E1E6"/>
<g clip-path="url(#clip0_10323_209)">
<path d="M32.7277 10.3041C32.0782 15.5601 29.6665 20.4308 25.8856 24.1226L24.9937 25.0145L25.2866 26.2414C25.6683 27.8234 25.4696 29.4867 24.7267 30.928C24.6481 30.3934 24.5358 29.8641 24.3906 29.3432L23.5132 26.1678L20.8301 28.1226C20.5937 28.296 20.3482 28.4569 20.0949 28.6046L14.4167 22.9263C14.5945 22.5796 14.7883 22.2486 14.9978 21.9125L16.6372 19.3548L13.7198 18.536C13.2315 18.4001 12.7357 18.2933 12.2351 18.2159C13.6705 17.4926 15.3133 17.2838 16.89 17.6244L18.0799 17.8804L18.9089 17.0515C22.6431 13.3433 27.501 10.9741 32.733 10.3094L32.7277 10.3041ZM34.9155 8.12681C34.7968 8.00867 34.6396 7.9372 34.4729 7.92557L34.3835 7.92005C27.9568 8.26061 21.8918 10.9462 17.3363 15.4684C15.212 15.01 12.9986 15.3117 11.0827 16.3208C9.16692 17.3299 7.67054 18.9822 6.8551 20.989C8.86042 20.2387 11.0551 20.142 13.1263 20.7126C12.6883 21.4156 12.3052 22.1516 11.9804 22.914C11.9037 23.0462 11.8726 23.2003 11.8921 23.3524C11.9116 23.5046 11.9804 23.6464 12.0881 23.7562L19.4128 31.0809C19.5606 31.2286 19.85 31.2347 20.1442 31.0883C20.8746 30.785 21.5644 30.3929 22.1982 29.9209C22.7745 31.9915 22.6777 34.188 21.9218 36.1921C23.9575 35.4196 25.6396 33.9331 26.6558 32.0085C27.6721 30.0839 27.9534 27.8519 27.4477 25.7267C32.0655 21.2133 34.8021 15.1151 35.1117 8.6483C35.1168 8.55149 35.1015 8.45458 35.0668 8.36383C35.0321 8.27309 34.9788 8.19054 34.9102 8.12153L34.9155 8.12681Z" fill="#E1E1E6"/>
<path d="M22.8853 20.1465C22.48 19.7411 22.203 19.2256 22.0894 18.6648C21.9757 18.104 22.0304 17.523 22.2466 16.9952C22.4628 16.4674 22.8307 16.0163 23.3041 15.6987C23.7775 15.3812 24.3351 15.2115 24.9067 15.211C25.4782 15.2104 26.0381 15.3791 26.5158 15.6958C26.9935 16.0124 27.3675 16.4628 27.5909 16.9903C27.8142 17.5177 27.8767 18.0985 27.7706 18.6595C27.6645 19.2205 27.3946 19.7366 26.9947 20.1427V20.1427C26.7399 20.4101 26.4346 20.6244 26.0962 20.7734C25.7578 20.9223 25.393 21.0029 25.0227 21.0106C24.6523 21.0184 24.2836 20.953 23.9377 20.8183C23.5917 20.6837 23.2753 20.4823 23.0065 20.2258C22.968 20.1979 22.9342 20.164 22.9063 20.1255L22.8853 20.1465Z" fill="#E1E1E6"/>
<path d="M17.2303 31.5112C17.1025 31.375 16.9488 31.2655 16.7785 31.1892C16.6081 31.1129 16.4244 31.0713 16.2381 31.0668C16.0519 31.0623 15.8668 31.0951 15.6938 31.1632C15.5208 31.2313 15.3634 31.3333 15.2307 31.4633L12.1353 34.5587C11.8653 34.8287 11.7143 35.1954 11.7154 35.5783C11.7165 35.9612 11.8697 36.3288 12.1412 36.6003C12.4127 36.8719 12.7804 37.025 13.1632 37.0261C13.5461 37.0273 13.9128 36.8762 14.1828 36.6063L17.2362 33.5528C17.3713 33.4262 17.4796 33.2738 17.555 33.1046C17.6303 32.9353 17.6711 32.7525 17.6749 32.5669C17.6788 32.3813 17.6457 32.1966 17.5775 32.0235C17.5093 31.8504 17.4074 31.6924 17.2778 31.5587L17.2303 31.5112Z" fill="#E1E1E6"/>
<path d="M11.5311 25.8119C11.4039 25.6706 11.2497 25.5561 11.0776 25.4753C10.9056 25.3945 10.7193 25.349 10.5298 25.3416C10.3403 25.3342 10.1514 25.365 9.9745 25.4321C9.79755 25.4992 9.63612 25.6013 9.49981 25.7323L6.40438 28.8278C6.13444 29.0977 5.98342 29.4645 5.98453 29.8473C5.98565 30.2302 6.13881 30.5978 6.41033 30.8694C6.68185 31.1409 7.04949 31.294 7.43236 31.2952C7.81523 31.2963 8.18198 31.1452 8.45192 30.8753L11.5054 27.8218C11.6404 27.6952 11.7488 27.5428 11.8241 27.3736C11.8994 27.2043 11.9402 27.0215 11.9441 26.8359C11.9479 26.6503 11.9148 26.4656 11.8466 26.2925C11.7784 26.1194 11.6766 25.9614 11.5469 25.8278L11.5311 25.8119Z" fill="#E1E1E6"/>
<path d="M14.3016 28.5824C14.1727 28.4479 14.0187 28.34 13.8485 28.2649C13.6782 28.1897 13.495 28.1487 13.3093 28.1442C13.1236 28.1398 12.9391 28.172 12.7663 28.2389C12.5934 28.3059 12.4357 28.4063 12.302 28.5345L8.03661 32.7999C7.76666 33.0698 7.61564 33.4366 7.61676 33.8194C7.61787 34.2023 7.77104 34.5699 8.04256 34.8415C8.31408 35.113 8.68171 35.2662 9.06458 35.2673C9.44746 35.2684 9.8142 35.1174 10.0841 34.8474L14.2813 30.6502C14.4164 30.5236 14.5247 30.3712 14.6 30.202C14.6754 30.0327 14.7161 29.8499 14.72 29.6643C14.7239 29.4787 14.6908 29.294 14.6226 29.1209C14.5544 28.9478 14.4525 28.7898 14.3229 28.6561L14.3016 28.5824Z" fill="#E1E1E6"/>
</g>
<defs>
<clipPath id="clip0_10323_209">
<rect width="22.9264" height="37.8848" fill="white" transform="translate(26.7886) rotate(45)"/>
</clipPath>
</defs>
</svg>
