<svg width="166" height="50" viewBox="0 0 166 50" fill="none" xmlns="http://www.w3.org/2000/svg">
<path d="M37.3148 12.6946C37.0002 18.8625 34.5654 24.4218 30.4073 28.4665L29.4283 29.4456L29.8813 30.9237C30.47 32.8302 30.3785 34.7825 29.6235 36.4251C29.4842 35.7852 29.3055 35.1487 29.0885 34.5194L27.7749 30.6833L24.7667 32.7661C24.5017 32.951 24.225 33.1203 23.9377 33.2733L16.7228 26.0583C16.9035 25.6631 17.1042 25.288 17.3233 24.908L19.0435 22.021L15.518 20.7992C14.928 20.5961 14.3317 20.4266 13.7322 20.2918C15.3694 19.5593 17.2966 19.4541 19.1933 19.9938L20.6244 20.3999L21.5344 19.4899C25.6357 15.4217 31.1834 13.0362 37.3215 12.7013L37.3148 12.6946ZM39.7173 10.3056C39.5665 10.1554 39.3742 10.0572 39.1758 10.029L39.0694 10.0147C31.4886 9.86234 24.5387 12.5181 19.5353 17.4793C16.9801 16.7528 14.3852 16.9187 12.2037 17.948C10.0223 18.9773 8.39322 20.8045 7.60111 23.1104C9.91088 22.3953 12.5014 22.4705 15.0034 23.3254C14.5455 24.1199 14.1555 24.9583 13.8368 25.833C13.7574 25.983 13.7339 26.1627 13.7701 26.3446C13.8063 26.5265 13.9001 26.7004 14.0371 26.8397L23.3441 36.1467C23.5319 36.3344 23.8751 36.3667 24.2109 36.2186C25.0496 35.9227 25.8325 35.5181 26.5422 35.0138C27.4037 37.5156 27.4789 40.1083 26.7571 42.4162C29.101 41.6773 30.9644 40.0625 32.0013 37.8713C33.0383 35.6802 33.1785 33.0615 32.3959 30.5012C37.4739 25.5558 40.1873 18.571 39.9947 10.9401C39.9924 10.8259 39.9659 10.7098 39.917 10.5993C39.868 10.4889 39.7977 10.3865 39.7106 10.2989L39.7173 10.3056Z" fill="white"/>
<path d="M26.5108 23.4987C25.9958 22.9837 25.6232 22.3492 25.4401 21.6753C25.257 21.0014 25.2716 20.3182 25.482 19.7119C25.6923 19.1055 26.0891 18.6031 26.6222 18.2681C27.1553 17.933 27.8009 17.7802 28.4777 17.829C29.1545 17.8778 29.8321 18.126 30.4251 18.5422C31.0181 18.9585 31.5 19.5242 31.8101 20.1681C32.1201 20.8119 32.2444 21.5051 32.1673 22.1603C32.0902 22.8154 31.8151 23.4032 31.3767 23.8495V23.8495C31.0981 24.1442 30.755 24.3716 30.3672 24.5187C29.9794 24.6658 29.5544 24.7297 29.1165 24.7068C28.6786 24.684 28.2364 24.5747 27.8151 24.3853C27.3938 24.1959 27.0017 23.9301 26.6612 23.6031C26.6132 23.5667 26.5702 23.5237 26.5338 23.4757L26.5108 23.4987Z" fill="white"/>
<path d="M20.7972 36.4676C20.6341 36.2952 20.4427 36.1523 20.2343 36.0472C20.026 35.9421 19.8048 35.8769 19.5839 35.8555C19.3629 35.8341 19.1466 35.8569 18.9477 35.9226C18.7487 35.9883 18.5711 36.0955 18.4252 36.238L15.0273 39.6358C14.731 39.9322 14.5839 40.3534 14.6183 40.8069C14.6527 41.2603 14.8659 41.7089 15.2109 42.0539C15.5559 42.3989 16.0045 42.6121 16.458 42.6465C16.9114 42.6809 17.3327 42.5338 17.629 42.2375L20.9808 38.8857C21.1298 38.7474 21.2449 38.5764 21.3194 38.3824C21.394 38.1885 21.4265 37.9756 21.415 37.7561C21.4035 37.5367 21.3484 37.3151 21.2526 37.1042C21.1569 36.8933 21.0226 36.6975 20.8576 36.5279L20.7972 36.4676Z" fill="white"/>
<path d="M13.5554 29.2258C13.3925 29.0475 13.2 28.8986 12.9893 28.788C12.7786 28.6775 12.5541 28.6075 12.329 28.5824C12.104 28.5572 11.883 28.5773 11.6792 28.6415C11.4755 28.7057 11.2932 28.8126 11.1431 28.956L7.74522 32.3539C7.44891 32.6502 7.30178 33.0714 7.3362 33.5249C7.37063 33.9784 7.58379 34.4269 7.92879 34.772C8.27379 35.117 8.72238 35.3301 9.17586 35.3645C9.62934 35.399 10.0506 35.2518 10.3469 34.9555L13.6987 31.6037C13.8477 31.4655 13.9628 31.2944 14.0373 31.1004C14.1119 30.9065 14.1444 30.6936 14.1329 30.4742C14.1214 30.2547 14.0662 30.0331 13.9705 29.8222C13.8748 29.6114 13.7405 29.4155 13.5755 29.246L13.5554 29.2258Z" fill="white"/>
<path d="M17.0757 32.7461C16.9115 32.5758 16.7198 32.4347 16.5117 32.3309C16.3036 32.2272 16.0831 32.1628 15.8628 32.1415C15.6425 32.1201 15.4268 32.1423 15.2279 32.2066C15.029 32.271 14.8509 32.3763 14.7037 32.5165L10.0215 37.1987C9.72523 37.495 9.5781 37.9162 9.61253 38.3697C9.64695 38.8232 9.86011 39.2717 10.2051 39.6168C10.5501 39.9618 10.9987 40.1749 11.4522 40.2093C11.9057 40.2438 12.3269 40.0966 12.6232 39.8003L17.2305 35.193C17.3795 35.0548 17.4946 34.8837 17.5692 34.6898C17.6437 34.4958 17.6762 34.2829 17.6647 34.0635C17.6533 33.844 17.5981 33.6224 17.5024 33.4115C17.4066 33.2007 17.2724 33.0048 17.1073 32.8353L17.0757 32.7461Z" fill="white"/>
<path d="M71.132 12.62V18.236H64.364V38H57.308V18.236H50.612V12.62H71.132ZM83.1386 38.252C81.1226 38.252 79.3106 37.832 77.7026 36.992C76.1186 36.152 74.8706 34.952 73.9586 33.392C73.0466 31.832 72.5906 29.996 72.5906 27.884C72.5906 25.796 73.0466 23.972 73.9586 22.412C74.8946 20.852 76.1546 19.652 77.7386 18.812C79.3466 17.972 81.1586 17.552 83.1746 17.552C85.1906 17.552 86.9906 17.972 88.5746 18.812C90.1826 19.652 91.4426 20.852 92.3546 22.412C93.2906 23.972 93.7586 25.796 93.7586 27.884C93.7586 29.972 93.2906 31.808 92.3546 33.392C91.4426 34.952 90.1826 36.152 88.5746 36.992C86.9666 37.832 85.1546 38.252 83.1386 38.252ZM83.1386 32.132C84.1226 32.132 84.9386 31.772 85.5866 31.052C86.2586 30.308 86.5946 29.252 86.5946 27.884C86.5946 26.516 86.2586 25.472 85.5866 24.752C84.9386 24.032 84.1346 23.672 83.1746 23.672C82.2146 23.672 81.4106 24.032 80.7626 24.752C80.1146 25.472 79.7906 26.516 79.7906 27.884C79.7906 29.276 80.1026 30.332 80.7266 31.052C81.3506 31.772 82.1546 32.132 83.1386 32.132ZM112.217 22.592V28.46H95.9093V22.592H112.217ZM127.486 12.62C130.15 12.62 132.478 13.16 134.47 14.24C136.486 15.296 138.034 16.784 139.114 18.704C140.194 20.624 140.734 22.82 140.734 25.292C140.734 27.74 140.182 29.924 139.078 31.844C137.998 33.764 136.45 35.276 134.434 36.38C132.442 37.46 130.126 38 127.486 38H117.442V12.62H127.486ZM126.946 31.772C129.01 31.772 130.63 31.208 131.806 30.08C132.982 28.952 133.57 27.356 133.57 25.292C133.57 23.204 132.982 21.596 131.806 20.468C130.63 19.316 129.01 18.74 126.946 18.74H124.498V31.772H126.946ZM153.31 38.252C151.294 38.252 149.482 37.832 147.874 36.992C146.29 36.152 145.042 34.952 144.13 33.392C143.218 31.832 142.762 29.996 142.762 27.884C142.762 25.796 143.218 23.972 144.13 22.412C145.066 20.852 146.326 19.652 147.91 18.812C149.518 17.972 151.33 17.552 153.346 17.552C155.362 17.552 157.162 17.972 158.746 18.812C160.354 19.652 161.614 20.852 162.526 22.412C163.462 23.972 163.93 25.796 163.93 27.884C163.93 29.972 163.462 31.808 162.526 33.392C161.614 34.952 160.354 36.152 158.746 36.992C157.138 37.832 155.326 38.252 153.31 38.252ZM153.31 32.132C154.294 32.132 155.11 31.772 155.758 31.052C156.43 30.308 156.766 29.252 156.766 27.884C156.766 26.516 156.43 25.472 155.758 24.752C155.11 24.032 154.306 23.672 153.346 23.672C152.386 23.672 151.582 24.032 150.934 24.752C150.286 25.472 149.962 26.516 149.962 27.884C149.962 29.276 150.274 30.332 150.898 31.052C151.522 31.772 152.326 32.132 153.31 32.132Z" fill="white"/>
</svg>
